<mxfile host="app.diagrams.net" agent="Mozilla/5.0 (Windows NT 10.0; Win64; x64) AppleWebKit/537.36 (KHTML, like Gecko) Chrome/135.0.0.0 Safari/537.36 Edg/135.0.0.0" version="26.2.10">
  <diagram id="pOs0mMxzfDHAlMAasU0r" name="Page-1">
    <mxGraphModel dx="1036" dy="570" grid="1" gridSize="10" guides="1" tooltips="1" connect="1" arrows="1" fold="1" page="1" pageScale="1" pageWidth="850" pageHeight="1100" math="0" shadow="0">
      <root>
        <mxCell id="0" />
        <mxCell id="1" parent="0" />
        <mxCell id="HYM-1WMebcbXAW-C8K6S-140" value="" style="rounded=0;whiteSpace=wrap;html=1;" parent="1" vertex="1">
          <mxGeometry x="19.909999999999997" y="730" width="160" height="210" as="geometry" />
        </mxCell>
        <mxCell id="HYM-1WMebcbXAW-C8K6S-48" value="" style="rounded=0;whiteSpace=wrap;html=1;movable=1;resizable=1;rotatable=1;deletable=1;editable=1;connectable=1;" parent="1" vertex="1">
          <mxGeometry x="79.91" y="10" width="400" height="337.5" as="geometry" />
        </mxCell>
        <mxCell id="HYM-1WMebcbXAW-C8K6S-39" style="edgeStyle=orthogonalEdgeStyle;rounded=0;orthogonalLoop=1;jettySize=auto;html=1;entryX=0.5;entryY=0;entryDx=0;entryDy=0;exitX=0.358;exitY=0.998;exitDx=0;exitDy=0;exitPerimeter=0;movable=1;resizable=1;rotatable=1;deletable=1;editable=1;connectable=1;" parent="1" source="HYM-1WMebcbXAW-C8K6S-32" target="HYM-1WMebcbXAW-C8K6S-37" edge="1">
          <mxGeometry relative="1" as="geometry">
            <Array as="points" />
          </mxGeometry>
        </mxCell>
        <mxCell id="HYM-1WMebcbXAW-C8K6S-32" value="" style="rounded=0;whiteSpace=wrap;html=1;fillColor=#f5f5f5;fontColor=#333333;strokeColor=#666666;movable=1;resizable=1;rotatable=1;deletable=1;editable=1;connectable=1;" parent="1" vertex="1">
          <mxGeometry x="89.91" y="90" width="140" height="120" as="geometry" />
        </mxCell>
        <mxCell id="HYM-1WMebcbXAW-C8K6S-24" value="" style="rounded=0;whiteSpace=wrap;html=1;" parent="1" vertex="1">
          <mxGeometry x="499.90999999999997" y="290" width="140" height="120" as="geometry" />
        </mxCell>
        <mxCell id="HYM-1WMebcbXAW-C8K6S-10" style="edgeStyle=orthogonalEdgeStyle;rounded=0;orthogonalLoop=1;jettySize=auto;html=1;entryX=0.5;entryY=1;entryDx=0;entryDy=0;exitX=0.5;exitY=0;exitDx=0;exitDy=0;movable=1;resizable=1;rotatable=1;deletable=1;editable=1;connectable=1;" parent="1" source="HYM-1WMebcbXAW-C8K6S-8" target="HYM-1WMebcbXAW-C8K6S-9" edge="1">
          <mxGeometry relative="1" as="geometry" />
        </mxCell>
        <mxCell id="HYM-1WMebcbXAW-C8K6S-34" style="edgeStyle=orthogonalEdgeStyle;rounded=0;orthogonalLoop=1;jettySize=auto;html=1;entryX=0.5;entryY=1;entryDx=0;entryDy=0;exitX=0.289;exitY=-0.003;exitDx=0;exitDy=0;exitPerimeter=0;movable=1;resizable=1;rotatable=1;deletable=1;editable=1;connectable=1;" parent="1" source="HYM-1WMebcbXAW-C8K6S-8" target="HYM-1WMebcbXAW-C8K6S-31" edge="1">
          <mxGeometry relative="1" as="geometry" />
        </mxCell>
        <mxCell id="HYM-1WMebcbXAW-C8K6S-8" value="" style="rounded=0;whiteSpace=wrap;html=1;movable=1;resizable=1;rotatable=1;deletable=1;editable=1;connectable=1;" parent="1" vertex="1">
          <mxGeometry x="89.91" y="260" width="380" height="80" as="geometry" />
        </mxCell>
        <mxCell id="HYM-1WMebcbXAW-C8K6S-17" style="edgeStyle=orthogonalEdgeStyle;rounded=0;orthogonalLoop=1;jettySize=auto;html=1;exitX=0.25;exitY=1;exitDx=0;exitDy=0;movable=1;resizable=1;rotatable=1;deletable=1;editable=1;connectable=1;" parent="1" source="NDC5zV9RV27wytfkSKQT-1" target="HYM-1WMebcbXAW-C8K6S-14" edge="1">
          <mxGeometry relative="1" as="geometry" />
        </mxCell>
        <mxCell id="HYM-1WMebcbXAW-C8K6S-44" style="edgeStyle=orthogonalEdgeStyle;rounded=0;orthogonalLoop=1;jettySize=auto;html=1;movable=1;resizable=1;rotatable=1;deletable=1;editable=1;connectable=1;" parent="1" source="NDC5zV9RV27wytfkSKQT-1" target="HYM-1WMebcbXAW-C8K6S-43" edge="1">
          <mxGeometry relative="1" as="geometry" />
        </mxCell>
        <mxCell id="NDC5zV9RV27wytfkSKQT-1" value="Monarch" style="rounded=1;whiteSpace=wrap;html=1;fillColor=#fff2cc;strokeColor=#d6b656;movable=1;resizable=1;rotatable=1;deletable=1;editable=1;connectable=1;" parent="1" vertex="1">
          <mxGeometry x="249.91" y="20" width="120" height="40" as="geometry" />
        </mxCell>
        <mxCell id="HYM-1WMebcbXAW-C8K6S-19" style="edgeStyle=orthogonalEdgeStyle;rounded=0;orthogonalLoop=1;jettySize=auto;html=1;entryX=0.5;entryY=1;entryDx=0;entryDy=0;exitX=0.75;exitY=0;exitDx=0;exitDy=0;movable=1;resizable=1;rotatable=1;deletable=1;editable=1;connectable=1;" parent="1" source="ClewzN4aaPg-Dyx83Q_G-1" target="HYM-1WMebcbXAW-C8K6S-12" edge="1">
          <mxGeometry relative="1" as="geometry" />
        </mxCell>
        <mxCell id="HYM-1WMebcbXAW-C8K6S-27" style="edgeStyle=orthogonalEdgeStyle;rounded=0;orthogonalLoop=1;jettySize=auto;html=1;entryX=0.5;entryY=0;entryDx=0;entryDy=0;movable=1;resizable=1;rotatable=1;deletable=1;editable=1;connectable=1;" parent="1" source="ClewzN4aaPg-Dyx83Q_G-1" target="HYM-1WMebcbXAW-C8K6S-26" edge="1">
          <mxGeometry relative="1" as="geometry">
            <Array as="points">
              <mxPoint x="339.90999999999997" y="160" />
              <mxPoint x="339.90999999999997" y="160" />
            </Array>
          </mxGeometry>
        </mxCell>
        <mxCell id="ClewzN4aaPg-Dyx83Q_G-1" value="House of Lords&lt;br&gt;100 seats" style="rounded=1;whiteSpace=wrap;html=1;fillColor=#dae8fc;strokeColor=#6c8ebf;movable=1;resizable=1;rotatable=1;deletable=1;editable=1;connectable=1;" parent="1" vertex="1">
          <mxGeometry x="249.91" y="130" width="120" height="60" as="geometry" />
        </mxCell>
        <mxCell id="ClewzN4aaPg-Dyx83Q_G-2" value="House of Officers&lt;br&gt;Provincial Reps, 25 each, 225 seats" style="rounded=1;whiteSpace=wrap;html=1;fillColor=#dae8fc;strokeColor=#6c8ebf;movable=1;resizable=1;rotatable=1;deletable=1;editable=1;connectable=1;" parent="1" vertex="1">
          <mxGeometry x="99.91" y="270" width="120" height="60" as="geometry" />
        </mxCell>
        <mxCell id="ClewzN4aaPg-Dyx83Q_G-3" value="House of Commons&lt;br&gt;MMP, 1/2 Ratio, 400 seats" style="rounded=1;whiteSpace=wrap;html=1;fillColor=#dae8fc;strokeColor=#6c8ebf;movable=1;resizable=1;rotatable=1;deletable=1;editable=1;connectable=1;" parent="1" vertex="1">
          <mxGeometry x="339.90999999999997" y="270" width="120" height="60" as="geometry" />
        </mxCell>
        <mxCell id="40gAn0qN_kKVag_iX-q_-1" value="Aristocracy" style="rounded=1;whiteSpace=wrap;html=1;" parent="1" vertex="1">
          <mxGeometry x="509.90999999999997" y="310" width="120" height="40" as="geometry" />
        </mxCell>
        <mxCell id="HYM-1WMebcbXAW-C8K6S-22" style="edgeStyle=orthogonalEdgeStyle;rounded=0;orthogonalLoop=1;jettySize=auto;html=1;entryX=0.5;entryY=0;entryDx=0;entryDy=0;exitX=0.5;exitY=1;exitDx=0;exitDy=0;" parent="1" source="HYM-1WMebcbXAW-C8K6S-24" target="HYM-1WMebcbXAW-C8K6S-21" edge="1">
          <mxGeometry relative="1" as="geometry">
            <mxPoint x="579.91" y="270" as="sourcePoint" />
          </mxGeometry>
        </mxCell>
        <mxCell id="40gAn0qN_kKVag_iX-q_-2" value="General Population" style="rounded=1;whiteSpace=wrap;html=1;" parent="1" vertex="1">
          <mxGeometry x="509.90999999999997" y="360" width="120" height="40" as="geometry" />
        </mxCell>
        <mxCell id="HYM-1WMebcbXAW-C8K6S-1" value="Sends Bills to" style="text;html=1;strokeColor=none;fillColor=none;align=center;verticalAlign=middle;whiteSpace=wrap;rounded=0;movable=1;resizable=1;rotatable=1;deletable=1;editable=1;connectable=1;" parent="1" vertex="1">
          <mxGeometry x="259.90999999999997" y="285" width="40" height="30" as="geometry" />
        </mxCell>
        <mxCell id="HYM-1WMebcbXAW-C8K6S-4" value="" style="endArrow=classic;html=1;rounded=0;exitX=1;exitY=0.25;exitDx=0;exitDy=0;entryX=0;entryY=0.25;entryDx=0;entryDy=0;movable=1;resizable=1;rotatable=1;deletable=1;editable=1;connectable=1;" parent="1" source="ClewzN4aaPg-Dyx83Q_G-2" target="HYM-1WMebcbXAW-C8K6S-1" edge="1">
          <mxGeometry width="50" height="50" relative="1" as="geometry">
            <mxPoint x="299.90999999999997" y="300" as="sourcePoint" />
            <mxPoint x="349.90999999999997" y="250" as="targetPoint" />
          </mxGeometry>
        </mxCell>
        <mxCell id="HYM-1WMebcbXAW-C8K6S-5" value="" style="endArrow=classic;html=1;rounded=0;exitX=1;exitY=0.25;exitDx=0;exitDy=0;entryX=0;entryY=0.25;entryDx=0;entryDy=0;movable=1;resizable=1;rotatable=1;deletable=1;editable=1;connectable=1;" parent="1" source="HYM-1WMebcbXAW-C8K6S-1" target="ClewzN4aaPg-Dyx83Q_G-3" edge="1">
          <mxGeometry width="50" height="50" relative="1" as="geometry">
            <mxPoint x="299.90999999999997" y="300" as="sourcePoint" />
            <mxPoint x="349.90999999999997" y="250" as="targetPoint" />
          </mxGeometry>
        </mxCell>
        <mxCell id="HYM-1WMebcbXAW-C8K6S-6" value="" style="endArrow=classic;html=1;rounded=0;entryX=1;entryY=0.75;entryDx=0;entryDy=0;exitX=0;exitY=0.75;exitDx=0;exitDy=0;movable=1;resizable=1;rotatable=1;deletable=1;editable=1;connectable=1;" parent="1" source="ClewzN4aaPg-Dyx83Q_G-3" target="HYM-1WMebcbXAW-C8K6S-1" edge="1">
          <mxGeometry width="50" height="50" relative="1" as="geometry">
            <mxPoint x="299.90999999999997" y="300" as="sourcePoint" />
            <mxPoint x="349.90999999999997" y="250" as="targetPoint" />
          </mxGeometry>
        </mxCell>
        <mxCell id="HYM-1WMebcbXAW-C8K6S-7" value="" style="endArrow=classic;html=1;rounded=0;entryX=1;entryY=0.75;entryDx=0;entryDy=0;exitX=0;exitY=0.75;exitDx=0;exitDy=0;movable=1;resizable=1;rotatable=1;deletable=1;editable=1;connectable=1;" parent="1" source="HYM-1WMebcbXAW-C8K6S-1" target="ClewzN4aaPg-Dyx83Q_G-2" edge="1">
          <mxGeometry width="50" height="50" relative="1" as="geometry">
            <mxPoint x="299.90999999999997" y="300" as="sourcePoint" />
            <mxPoint x="349.90999999999997" y="250" as="targetPoint" />
          </mxGeometry>
        </mxCell>
        <mxCell id="HYM-1WMebcbXAW-C8K6S-11" style="edgeStyle=orthogonalEdgeStyle;rounded=0;orthogonalLoop=1;jettySize=auto;html=1;entryX=0.25;entryY=1;entryDx=0;entryDy=0;movable=1;resizable=1;rotatable=1;deletable=1;editable=1;connectable=1;" parent="1" source="HYM-1WMebcbXAW-C8K6S-9" target="ClewzN4aaPg-Dyx83Q_G-1" edge="1">
          <mxGeometry relative="1" as="geometry" />
        </mxCell>
        <mxCell id="HYM-1WMebcbXAW-C8K6S-9" value="Sends Bills to" style="text;html=1;strokeColor=none;fillColor=none;align=center;verticalAlign=middle;whiteSpace=wrap;rounded=0;movable=1;resizable=1;rotatable=1;deletable=1;editable=1;connectable=1;" parent="1" vertex="1">
          <mxGeometry x="249.91" y="210" width="60" height="30" as="geometry" />
        </mxCell>
        <mxCell id="HYM-1WMebcbXAW-C8K6S-20" style="edgeStyle=orthogonalEdgeStyle;rounded=0;orthogonalLoop=1;jettySize=auto;html=1;entryX=0.75;entryY=1;entryDx=0;entryDy=0;movable=1;resizable=1;rotatable=1;deletable=1;editable=1;connectable=1;" parent="1" source="HYM-1WMebcbXAW-C8K6S-12" target="NDC5zV9RV27wytfkSKQT-1" edge="1">
          <mxGeometry relative="1" as="geometry">
            <mxPoint x="419.90999999999997" y="70" as="targetPoint" />
            <Array as="points" />
          </mxGeometry>
        </mxCell>
        <mxCell id="HYM-1WMebcbXAW-C8K6S-12" value="If approved, sends Bills to" style="text;html=1;strokeColor=none;fillColor=none;align=center;verticalAlign=middle;whiteSpace=wrap;rounded=0;movable=1;resizable=1;rotatable=1;deletable=1;editable=1;connectable=1;" parent="1" vertex="1">
          <mxGeometry x="299.90999999999997" y="80" width="80" height="30" as="geometry" />
        </mxCell>
        <mxCell id="HYM-1WMebcbXAW-C8K6S-16" style="edgeStyle=orthogonalEdgeStyle;rounded=0;orthogonalLoop=1;jettySize=auto;html=1;entryX=0.25;entryY=0;entryDx=0;entryDy=0;movable=1;resizable=1;rotatable=1;deletable=1;editable=1;connectable=1;" parent="1" source="HYM-1WMebcbXAW-C8K6S-14" target="ClewzN4aaPg-Dyx83Q_G-1" edge="1">
          <mxGeometry relative="1" as="geometry" />
        </mxCell>
        <mxCell id="HYM-1WMebcbXAW-C8K6S-14" value="Chairs" style="text;html=1;strokeColor=none;fillColor=none;align=center;verticalAlign=middle;whiteSpace=wrap;rounded=0;movable=1;resizable=1;rotatable=1;deletable=1;editable=1;connectable=1;" parent="1" vertex="1">
          <mxGeometry x="259.90999999999997" y="85" width="40" height="20" as="geometry" />
        </mxCell>
        <mxCell id="HYM-1WMebcbXAW-C8K6S-23" style="edgeStyle=orthogonalEdgeStyle;rounded=0;orthogonalLoop=1;jettySize=auto;html=1;entryX=1;entryY=0.5;entryDx=0;entryDy=0;" parent="1" source="HYM-1WMebcbXAW-C8K6S-21" target="HYM-1WMebcbXAW-C8K6S-8" edge="1">
          <mxGeometry relative="1" as="geometry">
            <Array as="points">
              <mxPoint x="489.90999999999997" y="438" />
              <mxPoint x="489.90999999999997" y="300" />
            </Array>
          </mxGeometry>
        </mxCell>
        <mxCell id="HYM-1WMebcbXAW-C8K6S-170" style="edgeStyle=orthogonalEdgeStyle;rounded=0;orthogonalLoop=1;jettySize=auto;html=1;entryX=1;entryY=0.5;entryDx=0;entryDy=0;" parent="1" source="HYM-1WMebcbXAW-C8K6S-21" target="HYM-1WMebcbXAW-C8K6S-135" edge="1">
          <mxGeometry relative="1" as="geometry">
            <Array as="points">
              <mxPoint x="489.90999999999997" y="438" />
              <mxPoint x="489.90999999999997" y="720" />
              <mxPoint x="369.90999999999997" y="720" />
              <mxPoint x="369.90999999999997" y="950" />
              <mxPoint x="189.91" y="950" />
              <mxPoint x="189.91" y="890" />
            </Array>
          </mxGeometry>
        </mxCell>
        <mxCell id="HYM-1WMebcbXAW-C8K6S-21" value="Elects" style="text;html=1;strokeColor=none;fillColor=none;align=center;verticalAlign=middle;whiteSpace=wrap;rounded=0;" parent="1" vertex="1">
          <mxGeometry x="549.91" y="425" width="40" height="25" as="geometry" />
        </mxCell>
        <mxCell id="HYM-1WMebcbXAW-C8K6S-25" value="Electorate" style="text;html=1;strokeColor=none;fillColor=none;align=center;verticalAlign=middle;whiteSpace=wrap;rounded=0;" parent="1" vertex="1">
          <mxGeometry x="539.91" y="290" width="60" height="20" as="geometry" />
        </mxCell>
        <mxCell id="HYM-1WMebcbXAW-C8K6S-28" style="edgeStyle=orthogonalEdgeStyle;rounded=0;orthogonalLoop=1;jettySize=auto;html=1;movable=1;resizable=1;rotatable=1;deletable=1;editable=1;connectable=1;exitX=0.5;exitY=1;exitDx=0;exitDy=0;" parent="1" source="HYM-1WMebcbXAW-C8K6S-26" edge="1">
          <mxGeometry relative="1" as="geometry">
            <mxPoint x="339.90999999999997" y="260" as="targetPoint" />
            <Array as="points">
              <mxPoint x="339.90999999999997" y="260" />
              <mxPoint x="339.90999999999997" y="260" />
            </Array>
          </mxGeometry>
        </mxCell>
        <mxCell id="HYM-1WMebcbXAW-C8K6S-26" value="If denied, sends Bills to" style="text;html=1;strokeColor=none;fillColor=none;align=center;verticalAlign=middle;whiteSpace=wrap;rounded=0;movable=1;resizable=1;rotatable=1;deletable=1;editable=1;connectable=1;" parent="1" vertex="1">
          <mxGeometry x="299.90999999999997" y="210" width="80" height="30" as="geometry" />
        </mxCell>
        <mxCell id="HYM-1WMebcbXAW-C8K6S-29" value="Prime Minister" style="rounded=1;whiteSpace=wrap;html=1;fillColor=#f5f5f5;strokeColor=#666666;fontColor=#333333;movable=1;resizable=1;rotatable=1;deletable=1;editable=1;connectable=1;" parent="1" vertex="1">
          <mxGeometry x="99.91" y="110" width="120" height="40" as="geometry" />
        </mxCell>
        <mxCell id="HYM-1WMebcbXAW-C8K6S-30" value="Ministers" style="rounded=1;whiteSpace=wrap;html=1;fillColor=#f5f5f5;strokeColor=#666666;fontColor=#333333;movable=1;resizable=1;rotatable=1;deletable=1;editable=1;connectable=1;" parent="1" vertex="1">
          <mxGeometry x="99.91" y="160" width="120" height="40" as="geometry" />
        </mxCell>
        <mxCell id="HYM-1WMebcbXAW-C8K6S-46" style="edgeStyle=orthogonalEdgeStyle;rounded=0;orthogonalLoop=1;jettySize=auto;html=1;movable=1;resizable=1;rotatable=1;deletable=1;editable=1;connectable=1;" parent="1" source="HYM-1WMebcbXAW-C8K6S-31" edge="1">
          <mxGeometry relative="1" as="geometry">
            <mxPoint x="199.91" y="210" as="targetPoint" />
            <Array as="points">
              <mxPoint x="199.91" y="220" />
              <mxPoint x="199.91" y="220" />
            </Array>
          </mxGeometry>
        </mxCell>
        <mxCell id="HYM-1WMebcbXAW-C8K6S-31" value="Constitutes" style="text;html=1;strokeColor=none;fillColor=none;align=center;verticalAlign=middle;whiteSpace=wrap;rounded=0;movable=1;resizable=1;rotatable=1;deletable=1;editable=1;connectable=1;" parent="1" vertex="1">
          <mxGeometry x="169.91" y="225" width="60" height="20" as="geometry" />
        </mxCell>
        <mxCell id="HYM-1WMebcbXAW-C8K6S-33" value="Council of Ministers" style="text;html=1;strokeColor=none;fillColor=none;align=center;verticalAlign=middle;whiteSpace=wrap;rounded=0;movable=1;resizable=1;rotatable=1;deletable=1;editable=1;connectable=1;" parent="1" vertex="1">
          <mxGeometry x="104.86" y="90" width="110.09" height="20" as="geometry" />
        </mxCell>
        <mxCell id="HYM-1WMebcbXAW-C8K6S-42" style="edgeStyle=orthogonalEdgeStyle;rounded=0;orthogonalLoop=1;jettySize=auto;html=1;movable=1;resizable=1;rotatable=1;deletable=1;editable=1;connectable=1;" parent="1" source="HYM-1WMebcbXAW-C8K6S-37" edge="1">
          <mxGeometry relative="1" as="geometry">
            <mxPoint x="139.91" y="260" as="targetPoint" />
            <Array as="points">
              <mxPoint x="139.91" y="250" />
              <mxPoint x="139.91" y="250" />
            </Array>
          </mxGeometry>
        </mxCell>
        <mxCell id="HYM-1WMebcbXAW-C8K6S-37" value="Propose Bills to" style="text;html=1;strokeColor=none;fillColor=none;align=center;verticalAlign=middle;whiteSpace=wrap;rounded=0;movable=1;resizable=1;rotatable=1;deletable=1;editable=1;connectable=1;" parent="1" vertex="1">
          <mxGeometry x="109.91" y="222.5" width="60" height="25" as="geometry" />
        </mxCell>
        <mxCell id="HYM-1WMebcbXAW-C8K6S-47" style="edgeStyle=orthogonalEdgeStyle;rounded=0;orthogonalLoop=1;jettySize=auto;html=1;entryX=0.5;entryY=0;entryDx=0;entryDy=0;movable=1;resizable=1;rotatable=1;deletable=1;editable=1;connectable=1;" parent="1" source="HYM-1WMebcbXAW-C8K6S-43" target="HYM-1WMebcbXAW-C8K6S-33" edge="1">
          <mxGeometry relative="1" as="geometry">
            <Array as="points">
              <mxPoint x="159.91" y="40" />
            </Array>
          </mxGeometry>
        </mxCell>
        <mxCell id="HYM-1WMebcbXAW-C8K6S-90" style="edgeStyle=orthogonalEdgeStyle;rounded=0;orthogonalLoop=1;jettySize=auto;html=1;entryX=0;entryY=0.5;entryDx=0;entryDy=0;" parent="1" source="HYM-1WMebcbXAW-C8K6S-43" target="ClewzN4aaPg-Dyx83Q_G-1" edge="1">
          <mxGeometry relative="1" as="geometry">
            <Array as="points">
              <mxPoint x="159.91" y="60" />
              <mxPoint x="239.91" y="60" />
              <mxPoint x="239.91" y="160" />
            </Array>
          </mxGeometry>
        </mxCell>
        <mxCell id="HYM-1WMebcbXAW-C8K6S-142" style="edgeStyle=orthogonalEdgeStyle;rounded=0;orthogonalLoop=1;jettySize=auto;html=1;entryX=0.5;entryY=0;entryDx=0;entryDy=0;" parent="1" source="HYM-1WMebcbXAW-C8K6S-43" target="HYM-1WMebcbXAW-C8K6S-133" edge="1">
          <mxGeometry relative="1" as="geometry">
            <Array as="points">
              <mxPoint x="69.91" y="40" />
              <mxPoint x="69.91" y="720" />
              <mxPoint x="99.91" y="720" />
            </Array>
          </mxGeometry>
        </mxCell>
        <mxCell id="HYM-1WMebcbXAW-C8K6S-143" style="edgeStyle=orthogonalEdgeStyle;rounded=0;orthogonalLoop=1;jettySize=auto;html=1;entryX=0;entryY=0.5;entryDx=0;entryDy=0;" parent="1" source="HYM-1WMebcbXAW-C8K6S-43" target="HYM-1WMebcbXAW-C8K6S-135" edge="1">
          <mxGeometry relative="1" as="geometry">
            <Array as="points">
              <mxPoint x="69.91" y="40" />
              <mxPoint x="69.91" y="720" />
              <mxPoint x="9.909999999999997" y="720" />
              <mxPoint x="9.909999999999997" y="890" />
            </Array>
          </mxGeometry>
        </mxCell>
        <mxCell id="HYM-1WMebcbXAW-C8K6S-43" value="Appoints" style="text;html=1;strokeColor=none;fillColor=none;align=center;verticalAlign=middle;whiteSpace=wrap;rounded=0;movable=1;resizable=1;rotatable=1;deletable=1;editable=1;connectable=1;" parent="1" vertex="1">
          <mxGeometry x="134.91" y="30" width="50" height="20" as="geometry" />
        </mxCell>
        <mxCell id="HYM-1WMebcbXAW-C8K6S-50" value="Federal Government" style="text;html=1;strokeColor=none;fillColor=none;align=center;verticalAlign=middle;whiteSpace=wrap;rounded=0;movable=1;resizable=1;rotatable=1;deletable=1;editable=1;connectable=1;" parent="1" vertex="1">
          <mxGeometry x="399.90999999999997" y="10" width="80" height="30" as="geometry" />
        </mxCell>
        <mxCell id="HYM-1WMebcbXAW-C8K6S-91" value="" style="rounded=0;whiteSpace=wrap;html=1;movable=1;resizable=1;rotatable=1;deletable=1;editable=1;connectable=1;" parent="1" vertex="1">
          <mxGeometry x="79.91" y="370" width="400" height="337.5" as="geometry" />
        </mxCell>
        <mxCell id="HYM-1WMebcbXAW-C8K6S-92" style="edgeStyle=orthogonalEdgeStyle;rounded=0;orthogonalLoop=1;jettySize=auto;html=1;entryX=0.5;entryY=0;entryDx=0;entryDy=0;exitX=0.358;exitY=0.998;exitDx=0;exitDy=0;exitPerimeter=0;movable=1;resizable=1;rotatable=1;deletable=1;editable=1;connectable=1;" parent="1" source="HYM-1WMebcbXAW-C8K6S-93" target="HYM-1WMebcbXAW-C8K6S-124" edge="1">
          <mxGeometry relative="1" as="geometry">
            <Array as="points" />
          </mxGeometry>
        </mxCell>
        <mxCell id="HYM-1WMebcbXAW-C8K6S-93" value="" style="rounded=0;whiteSpace=wrap;html=1;fillColor=#f5f5f5;fontColor=#333333;strokeColor=#666666;movable=1;resizable=1;rotatable=1;deletable=1;editable=1;connectable=1;" parent="1" vertex="1">
          <mxGeometry x="89.91" y="450" width="140" height="120" as="geometry" />
        </mxCell>
        <mxCell id="HYM-1WMebcbXAW-C8K6S-94" style="edgeStyle=orthogonalEdgeStyle;rounded=0;orthogonalLoop=1;jettySize=auto;html=1;entryX=0.5;entryY=1;entryDx=0;entryDy=0;exitX=0.5;exitY=0;exitDx=0;exitDy=0;movable=1;resizable=1;rotatable=1;deletable=1;editable=1;connectable=1;" parent="1" source="HYM-1WMebcbXAW-C8K6S-96" target="HYM-1WMebcbXAW-C8K6S-111" edge="1">
          <mxGeometry relative="1" as="geometry" />
        </mxCell>
        <mxCell id="HYM-1WMebcbXAW-C8K6S-95" style="edgeStyle=orthogonalEdgeStyle;rounded=0;orthogonalLoop=1;jettySize=auto;html=1;entryX=0.5;entryY=1;entryDx=0;entryDy=0;exitX=0.289;exitY=-0.003;exitDx=0;exitDy=0;exitPerimeter=0;movable=1;resizable=1;rotatable=1;deletable=1;editable=1;connectable=1;" parent="1" source="HYM-1WMebcbXAW-C8K6S-96" target="HYM-1WMebcbXAW-C8K6S-121" edge="1">
          <mxGeometry relative="1" as="geometry" />
        </mxCell>
        <mxCell id="HYM-1WMebcbXAW-C8K6S-96" value="" style="rounded=0;whiteSpace=wrap;html=1;movable=1;resizable=1;rotatable=1;deletable=1;editable=1;connectable=1;" parent="1" vertex="1">
          <mxGeometry x="89.91" y="620" width="380" height="80" as="geometry" />
        </mxCell>
        <mxCell id="HYM-1WMebcbXAW-C8K6S-97" style="edgeStyle=orthogonalEdgeStyle;rounded=0;orthogonalLoop=1;jettySize=auto;html=1;exitX=0.25;exitY=1;exitDx=0;exitDy=0;movable=1;resizable=1;rotatable=1;deletable=1;editable=1;connectable=1;" parent="1" source="HYM-1WMebcbXAW-C8K6S-99" target="HYM-1WMebcbXAW-C8K6S-115" edge="1">
          <mxGeometry relative="1" as="geometry" />
        </mxCell>
        <mxCell id="HYM-1WMebcbXAW-C8K6S-98" style="edgeStyle=orthogonalEdgeStyle;rounded=0;orthogonalLoop=1;jettySize=auto;html=1;movable=1;resizable=1;rotatable=1;deletable=1;editable=1;connectable=1;" parent="1" source="HYM-1WMebcbXAW-C8K6S-99" target="HYM-1WMebcbXAW-C8K6S-127" edge="1">
          <mxGeometry relative="1" as="geometry" />
        </mxCell>
        <mxCell id="HYM-1WMebcbXAW-C8K6S-99" value="Lord Representative" style="rounded=1;whiteSpace=wrap;html=1;fillColor=#fff2cc;strokeColor=#d6b656;movable=1;resizable=1;rotatable=1;deletable=1;editable=1;connectable=1;" parent="1" vertex="1">
          <mxGeometry x="249.91" y="380" width="120" height="40" as="geometry" />
        </mxCell>
        <mxCell id="HYM-1WMebcbXAW-C8K6S-100" style="edgeStyle=orthogonalEdgeStyle;rounded=0;orthogonalLoop=1;jettySize=auto;html=1;entryX=0.5;entryY=1;entryDx=0;entryDy=0;exitX=0.75;exitY=0;exitDx=0;exitDy=0;movable=1;resizable=1;rotatable=1;deletable=1;editable=1;connectable=1;" parent="1" source="HYM-1WMebcbXAW-C8K6S-102" target="HYM-1WMebcbXAW-C8K6S-113" edge="1">
          <mxGeometry relative="1" as="geometry" />
        </mxCell>
        <mxCell id="HYM-1WMebcbXAW-C8K6S-101" style="edgeStyle=orthogonalEdgeStyle;rounded=0;orthogonalLoop=1;jettySize=auto;html=1;entryX=0.5;entryY=0;entryDx=0;entryDy=0;movable=1;resizable=1;rotatable=1;deletable=1;editable=1;connectable=1;" parent="1" source="HYM-1WMebcbXAW-C8K6S-102" target="HYM-1WMebcbXAW-C8K6S-117" edge="1">
          <mxGeometry relative="1" as="geometry">
            <Array as="points">
              <mxPoint x="339.90999999999997" y="520" />
              <mxPoint x="339.90999999999997" y="520" />
            </Array>
          </mxGeometry>
        </mxCell>
        <mxCell id="HYM-1WMebcbXAW-C8K6S-102" value="House of Lesser Lords&lt;br&gt;50 seats" style="rounded=1;whiteSpace=wrap;html=1;fillColor=#dae8fc;strokeColor=#6c8ebf;movable=1;resizable=1;rotatable=1;deletable=1;editable=1;connectable=1;" parent="1" vertex="1">
          <mxGeometry x="249.91" y="490" width="120" height="60" as="geometry" />
        </mxCell>
        <mxCell id="HYM-1WMebcbXAW-C8K6S-103" value="House of Officers&lt;br&gt;Shire Reps, 10 each, variable seats" style="rounded=1;whiteSpace=wrap;html=1;fillColor=#dae8fc;strokeColor=#6c8ebf;movable=1;resizable=1;rotatable=1;deletable=1;editable=1;connectable=1;" parent="1" vertex="1">
          <mxGeometry x="99.91" y="630" width="120" height="60" as="geometry" />
        </mxCell>
        <mxCell id="HYM-1WMebcbXAW-C8K6S-104" value="House of Commons&lt;br&gt;MMP, 1/2 Ratio, 200 seats" style="rounded=1;whiteSpace=wrap;html=1;fillColor=#dae8fc;strokeColor=#6c8ebf;movable=1;resizable=1;rotatable=1;deletable=1;editable=1;connectable=1;" parent="1" vertex="1">
          <mxGeometry x="339.90999999999997" y="630" width="120" height="60" as="geometry" />
        </mxCell>
        <mxCell id="HYM-1WMebcbXAW-C8K6S-105" value="Sends Bills to" style="text;html=1;strokeColor=none;fillColor=none;align=center;verticalAlign=middle;whiteSpace=wrap;rounded=0;movable=1;resizable=1;rotatable=1;deletable=1;editable=1;connectable=1;" parent="1" vertex="1">
          <mxGeometry x="259.90999999999997" y="645" width="40" height="30" as="geometry" />
        </mxCell>
        <mxCell id="HYM-1WMebcbXAW-C8K6S-106" value="" style="endArrow=classic;html=1;rounded=0;exitX=1;exitY=0.25;exitDx=0;exitDy=0;entryX=0;entryY=0.25;entryDx=0;entryDy=0;movable=1;resizable=1;rotatable=1;deletable=1;editable=1;connectable=1;" parent="1" source="HYM-1WMebcbXAW-C8K6S-103" target="HYM-1WMebcbXAW-C8K6S-105" edge="1">
          <mxGeometry width="50" height="50" relative="1" as="geometry">
            <mxPoint x="299.90999999999997" y="660" as="sourcePoint" />
            <mxPoint x="349.90999999999997" y="610" as="targetPoint" />
          </mxGeometry>
        </mxCell>
        <mxCell id="HYM-1WMebcbXAW-C8K6S-107" value="" style="endArrow=classic;html=1;rounded=0;exitX=1;exitY=0.25;exitDx=0;exitDy=0;entryX=0;entryY=0.25;entryDx=0;entryDy=0;movable=1;resizable=1;rotatable=1;deletable=1;editable=1;connectable=1;" parent="1" source="HYM-1WMebcbXAW-C8K6S-105" target="HYM-1WMebcbXAW-C8K6S-104" edge="1">
          <mxGeometry width="50" height="50" relative="1" as="geometry">
            <mxPoint x="299.90999999999997" y="660" as="sourcePoint" />
            <mxPoint x="349.90999999999997" y="610" as="targetPoint" />
          </mxGeometry>
        </mxCell>
        <mxCell id="HYM-1WMebcbXAW-C8K6S-108" value="" style="endArrow=classic;html=1;rounded=0;entryX=1;entryY=0.75;entryDx=0;entryDy=0;exitX=0;exitY=0.75;exitDx=0;exitDy=0;movable=1;resizable=1;rotatable=1;deletable=1;editable=1;connectable=1;" parent="1" source="HYM-1WMebcbXAW-C8K6S-104" target="HYM-1WMebcbXAW-C8K6S-105" edge="1">
          <mxGeometry width="50" height="50" relative="1" as="geometry">
            <mxPoint x="299.90999999999997" y="660" as="sourcePoint" />
            <mxPoint x="349.90999999999997" y="610" as="targetPoint" />
          </mxGeometry>
        </mxCell>
        <mxCell id="HYM-1WMebcbXAW-C8K6S-109" value="" style="endArrow=classic;html=1;rounded=0;entryX=1;entryY=0.75;entryDx=0;entryDy=0;exitX=0;exitY=0.75;exitDx=0;exitDy=0;movable=1;resizable=1;rotatable=1;deletable=1;editable=1;connectable=1;" parent="1" source="HYM-1WMebcbXAW-C8K6S-105" target="HYM-1WMebcbXAW-C8K6S-103" edge="1">
          <mxGeometry width="50" height="50" relative="1" as="geometry">
            <mxPoint x="299.90999999999997" y="660" as="sourcePoint" />
            <mxPoint x="349.90999999999997" y="610" as="targetPoint" />
          </mxGeometry>
        </mxCell>
        <mxCell id="HYM-1WMebcbXAW-C8K6S-110" style="edgeStyle=orthogonalEdgeStyle;rounded=0;orthogonalLoop=1;jettySize=auto;html=1;entryX=0.25;entryY=1;entryDx=0;entryDy=0;movable=1;resizable=1;rotatable=1;deletable=1;editable=1;connectable=1;" parent="1" source="HYM-1WMebcbXAW-C8K6S-111" target="HYM-1WMebcbXAW-C8K6S-102" edge="1">
          <mxGeometry relative="1" as="geometry" />
        </mxCell>
        <mxCell id="HYM-1WMebcbXAW-C8K6S-111" value="Sends Bills to" style="text;html=1;strokeColor=none;fillColor=none;align=center;verticalAlign=middle;whiteSpace=wrap;rounded=0;movable=1;resizable=1;rotatable=1;deletable=1;editable=1;connectable=1;" parent="1" vertex="1">
          <mxGeometry x="249.91" y="570" width="60" height="30" as="geometry" />
        </mxCell>
        <mxCell id="HYM-1WMebcbXAW-C8K6S-112" style="edgeStyle=orthogonalEdgeStyle;rounded=0;orthogonalLoop=1;jettySize=auto;html=1;entryX=0.75;entryY=1;entryDx=0;entryDy=0;movable=1;resizable=1;rotatable=1;deletable=1;editable=1;connectable=1;" parent="1" source="HYM-1WMebcbXAW-C8K6S-113" target="HYM-1WMebcbXAW-C8K6S-99" edge="1">
          <mxGeometry relative="1" as="geometry">
            <mxPoint x="419.90999999999997" y="430" as="targetPoint" />
            <Array as="points" />
          </mxGeometry>
        </mxCell>
        <mxCell id="HYM-1WMebcbXAW-C8K6S-113" value="If approved, sends Bills to" style="text;html=1;strokeColor=none;fillColor=none;align=center;verticalAlign=middle;whiteSpace=wrap;rounded=0;movable=1;resizable=1;rotatable=1;deletable=1;editable=1;connectable=1;" parent="1" vertex="1">
          <mxGeometry x="299.90999999999997" y="440" width="80" height="30" as="geometry" />
        </mxCell>
        <mxCell id="HYM-1WMebcbXAW-C8K6S-114" style="edgeStyle=orthogonalEdgeStyle;rounded=0;orthogonalLoop=1;jettySize=auto;html=1;entryX=0.25;entryY=0;entryDx=0;entryDy=0;movable=1;resizable=1;rotatable=1;deletable=1;editable=1;connectable=1;" parent="1" source="HYM-1WMebcbXAW-C8K6S-115" target="HYM-1WMebcbXAW-C8K6S-102" edge="1">
          <mxGeometry relative="1" as="geometry" />
        </mxCell>
        <mxCell id="HYM-1WMebcbXAW-C8K6S-115" value="Chairs" style="text;html=1;strokeColor=none;fillColor=none;align=center;verticalAlign=middle;whiteSpace=wrap;rounded=0;movable=1;resizable=1;rotatable=1;deletable=1;editable=1;connectable=1;" parent="1" vertex="1">
          <mxGeometry x="259.90999999999997" y="445" width="40" height="20" as="geometry" />
        </mxCell>
        <mxCell id="HYM-1WMebcbXAW-C8K6S-116" style="edgeStyle=orthogonalEdgeStyle;rounded=0;orthogonalLoop=1;jettySize=auto;html=1;movable=1;resizable=1;rotatable=1;deletable=1;editable=1;connectable=1;exitX=0.5;exitY=1;exitDx=0;exitDy=0;" parent="1" source="HYM-1WMebcbXAW-C8K6S-117" edge="1">
          <mxGeometry relative="1" as="geometry">
            <mxPoint x="339.90999999999997" y="620" as="targetPoint" />
            <Array as="points">
              <mxPoint x="339.90999999999997" y="620" />
              <mxPoint x="339.90999999999997" y="620" />
            </Array>
          </mxGeometry>
        </mxCell>
        <mxCell id="HYM-1WMebcbXAW-C8K6S-117" value="If denied, sends Bills to" style="text;html=1;strokeColor=none;fillColor=none;align=center;verticalAlign=middle;whiteSpace=wrap;rounded=0;movable=1;resizable=1;rotatable=1;deletable=1;editable=1;connectable=1;" parent="1" vertex="1">
          <mxGeometry x="299.90999999999997" y="570" width="80" height="30" as="geometry" />
        </mxCell>
        <mxCell id="HYM-1WMebcbXAW-C8K6S-118" value="Premier" style="rounded=1;whiteSpace=wrap;html=1;fillColor=#f5f5f5;strokeColor=#666666;fontColor=#333333;movable=1;resizable=1;rotatable=1;deletable=1;editable=1;connectable=1;" parent="1" vertex="1">
          <mxGeometry x="99.91" y="470" width="120" height="40" as="geometry" />
        </mxCell>
        <mxCell id="HYM-1WMebcbXAW-C8K6S-119" value="Ministers" style="rounded=1;whiteSpace=wrap;html=1;fillColor=#f5f5f5;strokeColor=#666666;fontColor=#333333;movable=1;resizable=1;rotatable=1;deletable=1;editable=1;connectable=1;" parent="1" vertex="1">
          <mxGeometry x="99.91" y="520" width="120" height="40" as="geometry" />
        </mxCell>
        <mxCell id="HYM-1WMebcbXAW-C8K6S-120" style="edgeStyle=orthogonalEdgeStyle;rounded=0;orthogonalLoop=1;jettySize=auto;html=1;movable=1;resizable=1;rotatable=1;deletable=1;editable=1;connectable=1;" parent="1" source="HYM-1WMebcbXAW-C8K6S-121" edge="1">
          <mxGeometry relative="1" as="geometry">
            <mxPoint x="199.91" y="570" as="targetPoint" />
            <Array as="points">
              <mxPoint x="199.91" y="580" />
              <mxPoint x="199.91" y="580" />
            </Array>
          </mxGeometry>
        </mxCell>
        <mxCell id="HYM-1WMebcbXAW-C8K6S-121" value="Constitutes" style="text;html=1;strokeColor=none;fillColor=none;align=center;verticalAlign=middle;whiteSpace=wrap;rounded=0;movable=1;resizable=1;rotatable=1;deletable=1;editable=1;connectable=1;" parent="1" vertex="1">
          <mxGeometry x="169.91" y="585" width="60" height="20" as="geometry" />
        </mxCell>
        <mxCell id="HYM-1WMebcbXAW-C8K6S-122" value="Council of Ministers" style="text;html=1;strokeColor=none;fillColor=none;align=center;verticalAlign=middle;whiteSpace=wrap;rounded=0;movable=1;resizable=1;rotatable=1;deletable=1;editable=1;connectable=1;" parent="1" vertex="1">
          <mxGeometry x="104.86" y="450" width="110.09" height="20" as="geometry" />
        </mxCell>
        <mxCell id="HYM-1WMebcbXAW-C8K6S-123" style="edgeStyle=orthogonalEdgeStyle;rounded=0;orthogonalLoop=1;jettySize=auto;html=1;movable=1;resizable=1;rotatable=1;deletable=1;editable=1;connectable=1;" parent="1" source="HYM-1WMebcbXAW-C8K6S-124" edge="1">
          <mxGeometry relative="1" as="geometry">
            <mxPoint x="139.91" y="620" as="targetPoint" />
            <Array as="points">
              <mxPoint x="139.91" y="610" />
              <mxPoint x="139.91" y="610" />
            </Array>
          </mxGeometry>
        </mxCell>
        <mxCell id="HYM-1WMebcbXAW-C8K6S-124" value="Propose Bills to" style="text;html=1;strokeColor=none;fillColor=none;align=center;verticalAlign=middle;whiteSpace=wrap;rounded=0;movable=1;resizable=1;rotatable=1;deletable=1;editable=1;connectable=1;" parent="1" vertex="1">
          <mxGeometry x="109.91" y="582.5" width="60" height="25" as="geometry" />
        </mxCell>
        <mxCell id="HYM-1WMebcbXAW-C8K6S-125" style="edgeStyle=orthogonalEdgeStyle;rounded=0;orthogonalLoop=1;jettySize=auto;html=1;entryX=0.5;entryY=0;entryDx=0;entryDy=0;movable=1;resizable=1;rotatable=1;deletable=1;editable=1;connectable=1;" parent="1" source="HYM-1WMebcbXAW-C8K6S-127" target="HYM-1WMebcbXAW-C8K6S-122" edge="1">
          <mxGeometry relative="1" as="geometry">
            <Array as="points">
              <mxPoint x="159.91" y="400" />
            </Array>
          </mxGeometry>
        </mxCell>
        <mxCell id="HYM-1WMebcbXAW-C8K6S-126" style="edgeStyle=orthogonalEdgeStyle;rounded=0;orthogonalLoop=1;jettySize=auto;html=1;entryX=0;entryY=0.5;entryDx=0;entryDy=0;" parent="1" source="HYM-1WMebcbXAW-C8K6S-127" target="HYM-1WMebcbXAW-C8K6S-102" edge="1">
          <mxGeometry relative="1" as="geometry">
            <Array as="points">
              <mxPoint x="159.91" y="420" />
              <mxPoint x="239.91" y="420" />
              <mxPoint x="239.91" y="520" />
            </Array>
          </mxGeometry>
        </mxCell>
        <mxCell id="HYM-1WMebcbXAW-C8K6S-127" value="Appoints" style="text;html=1;strokeColor=none;fillColor=none;align=center;verticalAlign=middle;whiteSpace=wrap;rounded=0;movable=1;resizable=1;rotatable=1;deletable=1;editable=1;connectable=1;" parent="1" vertex="1">
          <mxGeometry x="134.91" y="390" width="50" height="20" as="geometry" />
        </mxCell>
        <mxCell id="HYM-1WMebcbXAW-C8K6S-128" value="Provincial Governments x9" style="text;html=1;strokeColor=none;fillColor=none;align=center;verticalAlign=middle;whiteSpace=wrap;rounded=0;movable=1;resizable=1;rotatable=1;deletable=1;editable=1;connectable=1;" parent="1" vertex="1">
          <mxGeometry x="379.90999999999997" y="370" width="100" height="30" as="geometry" />
        </mxCell>
        <mxCell id="HYM-1WMebcbXAW-C8K6S-89" style="edgeStyle=orthogonalEdgeStyle;rounded=0;orthogonalLoop=1;jettySize=auto;html=1;entryX=0.5;entryY=0;entryDx=0;entryDy=0;" parent="1" source="HYM-1WMebcbXAW-C8K6S-43" target="HYM-1WMebcbXAW-C8K6S-99" edge="1">
          <mxGeometry relative="1" as="geometry">
            <mxPoint x="39.91" y="360" as="targetPoint" />
            <Array as="points">
              <mxPoint x="69.91" y="40" />
              <mxPoint x="69.91" y="360" />
              <mxPoint x="309.90999999999997" y="360" />
            </Array>
          </mxGeometry>
        </mxCell>
        <mxCell id="HYM-1WMebcbXAW-C8K6S-129" style="edgeStyle=orthogonalEdgeStyle;rounded=0;orthogonalLoop=1;jettySize=auto;html=1;entryX=1;entryY=0.5;entryDx=0;entryDy=0;" parent="1" source="HYM-1WMebcbXAW-C8K6S-21" target="HYM-1WMebcbXAW-C8K6S-96" edge="1">
          <mxGeometry relative="1" as="geometry">
            <Array as="points">
              <mxPoint x="489.90999999999997" y="438" />
              <mxPoint x="489.90999999999997" y="660" />
            </Array>
          </mxGeometry>
        </mxCell>
        <mxCell id="HYM-1WMebcbXAW-C8K6S-132" style="edgeStyle=orthogonalEdgeStyle;rounded=0;orthogonalLoop=1;jettySize=auto;html=1;exitX=0.25;exitY=1;exitDx=0;exitDy=0;movable=1;resizable=1;rotatable=1;deletable=1;editable=1;connectable=1;" parent="1" source="HYM-1WMebcbXAW-C8K6S-133" target="HYM-1WMebcbXAW-C8K6S-139" edge="1">
          <mxGeometry relative="1" as="geometry" />
        </mxCell>
        <mxCell id="HYM-1WMebcbXAW-C8K6S-133" value="Governor" style="rounded=1;whiteSpace=wrap;html=1;fillColor=#f5f5f5;strokeColor=#666666;movable=1;resizable=1;rotatable=1;deletable=1;editable=1;connectable=1;fontColor=#333333;" parent="1" vertex="1">
          <mxGeometry x="39.91" y="750" width="120" height="40" as="geometry" />
        </mxCell>
        <mxCell id="HYM-1WMebcbXAW-C8K6S-134" style="edgeStyle=orthogonalEdgeStyle;rounded=0;orthogonalLoop=1;jettySize=auto;html=1;entryX=0.5;entryY=1;entryDx=0;entryDy=0;exitX=0.75;exitY=0;exitDx=0;exitDy=0;movable=1;resizable=1;rotatable=1;deletable=1;editable=1;connectable=1;" parent="1" source="HYM-1WMebcbXAW-C8K6S-135" target="HYM-1WMebcbXAW-C8K6S-137" edge="1">
          <mxGeometry relative="1" as="geometry" />
        </mxCell>
        <mxCell id="HYM-1WMebcbXAW-C8K6S-135" value="The Assembly&lt;br&gt;10 appointed seats&lt;br&gt;40 elected seats" style="rounded=1;whiteSpace=wrap;html=1;fillColor=#dae8fc;strokeColor=#6c8ebf;movable=1;resizable=1;rotatable=1;deletable=1;editable=1;connectable=1;" parent="1" vertex="1">
          <mxGeometry x="39.91" y="860" width="120" height="60" as="geometry" />
        </mxCell>
        <mxCell id="HYM-1WMebcbXAW-C8K6S-136" style="edgeStyle=orthogonalEdgeStyle;rounded=0;orthogonalLoop=1;jettySize=auto;html=1;entryX=0.75;entryY=1;entryDx=0;entryDy=0;movable=1;resizable=1;rotatable=1;deletable=1;editable=1;connectable=1;" parent="1" source="HYM-1WMebcbXAW-C8K6S-137" target="HYM-1WMebcbXAW-C8K6S-133" edge="1">
          <mxGeometry relative="1" as="geometry">
            <mxPoint x="209.91" y="800" as="targetPoint" />
            <Array as="points" />
          </mxGeometry>
        </mxCell>
        <mxCell id="HYM-1WMebcbXAW-C8K6S-137" value="If approved, sends Bills to" style="text;html=1;strokeColor=none;fillColor=none;align=center;verticalAlign=middle;whiteSpace=wrap;rounded=0;movable=1;resizable=1;rotatable=1;deletable=1;editable=1;connectable=1;" parent="1" vertex="1">
          <mxGeometry x="89.91" y="810" width="80" height="30" as="geometry" />
        </mxCell>
        <mxCell id="HYM-1WMebcbXAW-C8K6S-138" style="edgeStyle=orthogonalEdgeStyle;rounded=0;orthogonalLoop=1;jettySize=auto;html=1;entryX=0.25;entryY=0;entryDx=0;entryDy=0;movable=1;resizable=1;rotatable=1;deletable=1;editable=1;connectable=1;" parent="1" source="HYM-1WMebcbXAW-C8K6S-139" target="HYM-1WMebcbXAW-C8K6S-135" edge="1">
          <mxGeometry relative="1" as="geometry" />
        </mxCell>
        <mxCell id="HYM-1WMebcbXAW-C8K6S-139" value="Chairs" style="text;html=1;strokeColor=none;fillColor=none;align=center;verticalAlign=middle;whiteSpace=wrap;rounded=0;movable=1;resizable=1;rotatable=1;deletable=1;editable=1;connectable=1;" parent="1" vertex="1">
          <mxGeometry x="49.91" y="815" width="40" height="20" as="geometry" />
        </mxCell>
        <mxCell id="HYM-1WMebcbXAW-C8K6S-141" value="Governate" style="text;html=1;strokeColor=none;fillColor=none;align=center;verticalAlign=middle;whiteSpace=wrap;rounded=0;movable=1;resizable=1;rotatable=1;deletable=1;editable=1;connectable=1;" parent="1" vertex="1">
          <mxGeometry x="109.91" y="730" width="70" height="20" as="geometry" />
        </mxCell>
        <mxCell id="HYM-1WMebcbXAW-C8K6S-144" value="" style="rounded=0;whiteSpace=wrap;html=1;" parent="1" vertex="1">
          <mxGeometry x="379.90999999999997" y="730" width="160" height="210" as="geometry" />
        </mxCell>
        <mxCell id="HYM-1WMebcbXAW-C8K6S-145" style="edgeStyle=orthogonalEdgeStyle;rounded=0;orthogonalLoop=1;jettySize=auto;html=1;exitX=0.25;exitY=1;exitDx=0;exitDy=0;movable=1;resizable=1;rotatable=1;deletable=1;editable=1;connectable=1;" parent="1" source="HYM-1WMebcbXAW-C8K6S-146" target="HYM-1WMebcbXAW-C8K6S-152" edge="1">
          <mxGeometry relative="1" as="geometry" />
        </mxCell>
        <mxCell id="HYM-1WMebcbXAW-C8K6S-146" value="Reeve" style="rounded=1;whiteSpace=wrap;html=1;fillColor=#f5f5f5;strokeColor=#666666;movable=1;resizable=1;rotatable=1;deletable=1;editable=1;connectable=1;fontColor=#333333;" parent="1" vertex="1">
          <mxGeometry x="399.90999999999997" y="750" width="120" height="40" as="geometry" />
        </mxCell>
        <mxCell id="HYM-1WMebcbXAW-C8K6S-147" style="edgeStyle=orthogonalEdgeStyle;rounded=0;orthogonalLoop=1;jettySize=auto;html=1;entryX=0.5;entryY=1;entryDx=0;entryDy=0;exitX=0.75;exitY=0;exitDx=0;exitDy=0;movable=1;resizable=1;rotatable=1;deletable=1;editable=1;connectable=1;" parent="1" source="HYM-1WMebcbXAW-C8K6S-148" target="HYM-1WMebcbXAW-C8K6S-150" edge="1">
          <mxGeometry relative="1" as="geometry" />
        </mxCell>
        <mxCell id="HYM-1WMebcbXAW-C8K6S-148" value="Municipal Council&lt;br&gt;variable seats" style="rounded=1;whiteSpace=wrap;html=1;fillColor=#dae8fc;strokeColor=#6c8ebf;movable=1;resizable=1;rotatable=1;deletable=1;editable=1;connectable=1;" parent="1" vertex="1">
          <mxGeometry x="399.90999999999997" y="860" width="120" height="60" as="geometry" />
        </mxCell>
        <mxCell id="HYM-1WMebcbXAW-C8K6S-149" style="edgeStyle=orthogonalEdgeStyle;rounded=0;orthogonalLoop=1;jettySize=auto;html=1;entryX=0.75;entryY=1;entryDx=0;entryDy=0;movable=1;resizable=1;rotatable=1;deletable=1;editable=1;connectable=1;" parent="1" source="HYM-1WMebcbXAW-C8K6S-150" target="HYM-1WMebcbXAW-C8K6S-146" edge="1">
          <mxGeometry relative="1" as="geometry">
            <mxPoint x="569.91" y="800" as="targetPoint" />
            <Array as="points" />
          </mxGeometry>
        </mxCell>
        <mxCell id="HYM-1WMebcbXAW-C8K6S-150" value="If approved, sends Bills to" style="text;html=1;strokeColor=none;fillColor=none;align=center;verticalAlign=middle;whiteSpace=wrap;rounded=0;movable=1;resizable=1;rotatable=1;deletable=1;editable=1;connectable=1;" parent="1" vertex="1">
          <mxGeometry x="449.90999999999997" y="810" width="80" height="30" as="geometry" />
        </mxCell>
        <mxCell id="HYM-1WMebcbXAW-C8K6S-151" style="edgeStyle=orthogonalEdgeStyle;rounded=0;orthogonalLoop=1;jettySize=auto;html=1;entryX=0.25;entryY=0;entryDx=0;entryDy=0;movable=1;resizable=1;rotatable=1;deletable=1;editable=1;connectable=1;" parent="1" source="HYM-1WMebcbXAW-C8K6S-152" target="HYM-1WMebcbXAW-C8K6S-148" edge="1">
          <mxGeometry relative="1" as="geometry" />
        </mxCell>
        <mxCell id="HYM-1WMebcbXAW-C8K6S-152" value="Chairs" style="text;html=1;strokeColor=none;fillColor=none;align=center;verticalAlign=middle;whiteSpace=wrap;rounded=0;movable=1;resizable=1;rotatable=1;deletable=1;editable=1;connectable=1;" parent="1" vertex="1">
          <mxGeometry x="409.90999999999997" y="815" width="40" height="20" as="geometry" />
        </mxCell>
        <mxCell id="HYM-1WMebcbXAW-C8K6S-153" value="Municipality" style="text;html=1;strokeColor=none;fillColor=none;align=center;verticalAlign=middle;whiteSpace=wrap;rounded=0;movable=1;resizable=1;rotatable=1;deletable=1;editable=1;connectable=1;" parent="1" vertex="1">
          <mxGeometry x="469.90999999999997" y="730" width="70" height="20" as="geometry" />
        </mxCell>
        <mxCell id="HYM-1WMebcbXAW-C8K6S-154" value="" style="rounded=0;whiteSpace=wrap;html=1;" parent="1" vertex="1">
          <mxGeometry x="199.91" y="730" width="160" height="210" as="geometry" />
        </mxCell>
        <mxCell id="HYM-1WMebcbXAW-C8K6S-155" style="edgeStyle=orthogonalEdgeStyle;rounded=0;orthogonalLoop=1;jettySize=auto;html=1;exitX=0.25;exitY=1;exitDx=0;exitDy=0;movable=1;resizable=1;rotatable=1;deletable=1;editable=1;connectable=1;" parent="1" source="HYM-1WMebcbXAW-C8K6S-156" target="HYM-1WMebcbXAW-C8K6S-162" edge="1">
          <mxGeometry relative="1" as="geometry" />
        </mxCell>
        <mxCell id="HYM-1WMebcbXAW-C8K6S-156" value="Shire Reeve" style="rounded=1;whiteSpace=wrap;html=1;fillColor=#f5f5f5;strokeColor=#666666;movable=1;resizable=1;rotatable=1;deletable=1;editable=1;connectable=1;fontColor=#333333;" parent="1" vertex="1">
          <mxGeometry x="219.91" y="750" width="120" height="40" as="geometry" />
        </mxCell>
        <mxCell id="HYM-1WMebcbXAW-C8K6S-157" style="edgeStyle=orthogonalEdgeStyle;rounded=0;orthogonalLoop=1;jettySize=auto;html=1;entryX=0.5;entryY=1;entryDx=0;entryDy=0;exitX=0.75;exitY=0;exitDx=0;exitDy=0;movable=1;resizable=1;rotatable=1;deletable=1;editable=1;connectable=1;" parent="1" source="HYM-1WMebcbXAW-C8K6S-158" target="HYM-1WMebcbXAW-C8K6S-160" edge="1">
          <mxGeometry relative="1" as="geometry" />
        </mxCell>
        <mxCell id="HYM-1WMebcbXAW-C8K6S-158" value="County Council&lt;br&gt;variable seats" style="rounded=1;whiteSpace=wrap;html=1;fillColor=#dae8fc;strokeColor=#6c8ebf;movable=1;resizable=1;rotatable=1;deletable=1;editable=1;connectable=1;" parent="1" vertex="1">
          <mxGeometry x="219.91" y="860" width="120" height="60" as="geometry" />
        </mxCell>
        <mxCell id="HYM-1WMebcbXAW-C8K6S-159" style="edgeStyle=orthogonalEdgeStyle;rounded=0;orthogonalLoop=1;jettySize=auto;html=1;entryX=0.75;entryY=1;entryDx=0;entryDy=0;movable=1;resizable=1;rotatable=1;deletable=1;editable=1;connectable=1;" parent="1" source="HYM-1WMebcbXAW-C8K6S-160" target="HYM-1WMebcbXAW-C8K6S-156" edge="1">
          <mxGeometry relative="1" as="geometry">
            <mxPoint x="389.90999999999997" y="800" as="targetPoint" />
            <Array as="points" />
          </mxGeometry>
        </mxCell>
        <mxCell id="HYM-1WMebcbXAW-C8K6S-160" value="If approved, sends Bills to" style="text;html=1;strokeColor=none;fillColor=none;align=center;verticalAlign=middle;whiteSpace=wrap;rounded=0;movable=1;resizable=1;rotatable=1;deletable=1;editable=1;connectable=1;" parent="1" vertex="1">
          <mxGeometry x="269.90999999999997" y="810" width="80" height="30" as="geometry" />
        </mxCell>
        <mxCell id="HYM-1WMebcbXAW-C8K6S-161" style="edgeStyle=orthogonalEdgeStyle;rounded=0;orthogonalLoop=1;jettySize=auto;html=1;entryX=0.25;entryY=0;entryDx=0;entryDy=0;movable=1;resizable=1;rotatable=1;deletable=1;editable=1;connectable=1;" parent="1" source="HYM-1WMebcbXAW-C8K6S-162" target="HYM-1WMebcbXAW-C8K6S-158" edge="1">
          <mxGeometry relative="1" as="geometry" />
        </mxCell>
        <mxCell id="HYM-1WMebcbXAW-C8K6S-162" value="Chairs" style="text;html=1;strokeColor=none;fillColor=none;align=center;verticalAlign=middle;whiteSpace=wrap;rounded=0;movable=1;resizable=1;rotatable=1;deletable=1;editable=1;connectable=1;" parent="1" vertex="1">
          <mxGeometry x="229.91" y="815" width="40" height="20" as="geometry" />
        </mxCell>
        <mxCell id="HYM-1WMebcbXAW-C8K6S-163" value="Shire" style="text;html=1;strokeColor=none;fillColor=none;align=center;verticalAlign=middle;whiteSpace=wrap;rounded=0;movable=1;resizable=1;rotatable=1;deletable=1;editable=1;connectable=1;" parent="1" vertex="1">
          <mxGeometry x="320" y="730" width="39.91" height="20" as="geometry" />
        </mxCell>
        <mxCell id="HYM-1WMebcbXAW-C8K6S-164" style="edgeStyle=orthogonalEdgeStyle;rounded=0;orthogonalLoop=1;jettySize=auto;html=1;" parent="1" source="HYM-1WMebcbXAW-C8K6S-43" target="HYM-1WMebcbXAW-C8K6S-156" edge="1">
          <mxGeometry relative="1" as="geometry">
            <Array as="points">
              <mxPoint x="69.91" y="40" />
              <mxPoint x="69.91" y="720" />
              <mxPoint x="279.90999999999997" y="720" />
            </Array>
          </mxGeometry>
        </mxCell>
        <mxCell id="HYM-1WMebcbXAW-C8K6S-165" style="edgeStyle=orthogonalEdgeStyle;rounded=0;orthogonalLoop=1;jettySize=auto;html=1;entryX=0.5;entryY=0;entryDx=0;entryDy=0;" parent="1" source="HYM-1WMebcbXAW-C8K6S-21" target="HYM-1WMebcbXAW-C8K6S-146" edge="1">
          <mxGeometry relative="1" as="geometry">
            <Array as="points">
              <mxPoint x="489.90999999999997" y="438" />
              <mxPoint x="489.90999999999997" y="720" />
              <mxPoint x="459.90999999999997" y="720" />
            </Array>
          </mxGeometry>
        </mxCell>
        <mxCell id="HYM-1WMebcbXAW-C8K6S-166" style="edgeStyle=orthogonalEdgeStyle;rounded=0;orthogonalLoop=1;jettySize=auto;html=1;entryX=0;entryY=0.5;entryDx=0;entryDy=0;" parent="1" source="HYM-1WMebcbXAW-C8K6S-21" target="HYM-1WMebcbXAW-C8K6S-148" edge="1">
          <mxGeometry relative="1" as="geometry">
            <Array as="points">
              <mxPoint x="489.90999999999997" y="438" />
              <mxPoint x="489.90999999999997" y="720" />
              <mxPoint x="369.90999999999997" y="720" />
              <mxPoint x="369.90999999999997" y="890" />
            </Array>
          </mxGeometry>
        </mxCell>
        <mxCell id="HYM-1WMebcbXAW-C8K6S-167" style="edgeStyle=orthogonalEdgeStyle;rounded=0;orthogonalLoop=1;jettySize=auto;html=1;entryX=1;entryY=0.5;entryDx=0;entryDy=0;" parent="1" source="HYM-1WMebcbXAW-C8K6S-21" target="HYM-1WMebcbXAW-C8K6S-158" edge="1">
          <mxGeometry relative="1" as="geometry">
            <Array as="points">
              <mxPoint x="489.90999999999997" y="438" />
              <mxPoint x="489.90999999999997" y="720" />
              <mxPoint x="369.90999999999997" y="720" />
              <mxPoint x="369.90999999999997" y="890" />
            </Array>
          </mxGeometry>
        </mxCell>
      </root>
    </mxGraphModel>
  </diagram>
</mxfile>
